<svg width="126" height="266" viewBox="0 0 126 266" fill="none" xmlns="http://www.w3.org/2000/svg">
<g filter="url(#filter0_d_4_102)">
<path d="M14.225 217.242C19.3857 220.297 24.7571 223.035 30.3391 225.457C36.0265 227.88 42.2405 229.091 48.981 229.091C53.0885 229.091 57.0381 228.512 60.8297 227.353C64.6212 226.195 67.9388 224.404 70.7825 221.982C73.6262 219.559 75.8906 216.505 77.5757 212.819C79.2609 209.027 80.1034 204.551 80.1034 199.39C80.1034 195.915 79.6295 192.334 78.6816 188.648C77.839 184.961 76.3645 181.012 74.2581 176.799C72.257 172.481 69.5713 167.794 66.201 162.739C62.9361 157.683 58.8286 152.048 53.8785 145.835L33.4988 120.083C28.4434 113.659 24.1252 107.55 20.5443 101.758C17.0687 95.9649 14.225 90.4355 12.0132 85.1695C9.8015 79.7981 8.16902 74.69 7.11581 69.8452C6.16792 64.8951 5.69397 60.0503 5.69397 55.3109C5.69397 47.4118 6.95783 40.1446 9.48554 33.5094C12.0132 26.7688 15.6995 20.9761 20.5443 16.1314C25.3891 11.1813 31.2344 7.33704 38.0803 4.59868C45.0315 1.86033 52.8779 0.491155 61.6196 0.491155C68.5708 0.491155 75.5746 1.43905 82.6312 3.33483C89.6877 5.12529 96.5862 8.02163 103.327 12.0238L90.6882 36.511C87.002 34.2993 82.9998 32.4035 78.6816 30.8237C74.4688 29.1385 69.782 28.296 64.6212 28.296C55.9849 28.296 49.0863 30.771 43.9256 35.7211C38.7649 40.5659 36.1845 47.4644 36.1845 56.4167C36.1845 58.8391 36.4478 61.3668 36.9744 63.9999C37.501 66.5276 38.3962 69.3186 39.6601 72.3729C41.0293 75.4272 42.8197 78.7975 45.0315 82.4838C47.3485 86.17 50.2449 90.3302 53.7205 94.9643L83.2631 133.828C87.0547 138.883 90.6356 143.833 94.0059 148.678C97.3761 153.418 100.272 158.315 102.695 163.37C105.117 168.321 107.013 173.587 108.382 179.169C109.857 184.645 110.594 190.596 110.594 197.021C110.594 206.5 109.067 215.031 106.012 222.614C102.958 230.092 98.6927 236.463 93.2159 241.73C87.7392 246.996 81.2093 251.05 73.6262 253.894C66.1484 256.632 57.9333 258.002 48.981 258.002C39.7127 258.002 30.8658 256.632 22.4401 253.894C14.0144 251.156 6.74719 247.68 0.638552 243.467L14.225 217.242Z" fill="black"/>
</g>
<defs>
<filter id="filter0_d_4_102" x="0.63855" y="0.491158" width="124.955" height="264.51" filterUnits="userSpaceOnUse" color-interpolation-filters="sRGB">
<feFlood flood-opacity="0" result="BackgroundImageFix"/>
<feColorMatrix in="SourceAlpha" type="matrix" values="0 0 0 0 0 0 0 0 0 0 0 0 0 0 0 0 0 0 127 0" result="hardAlpha"/>
<feOffset dx="15" dy="7"/>
<feComposite in2="hardAlpha" operator="out"/>
<feColorMatrix type="matrix" values="0 0 0 0 1 0 0 0 0 0.588235 0 0 0 0 0.984314 0 0 0 1 0"/>
<feBlend mode="normal" in2="BackgroundImageFix" result="effect1_dropShadow_4_102"/>
<feBlend mode="normal" in="SourceGraphic" in2="effect1_dropShadow_4_102" result="shape"/>
</filter>
</defs>
</svg>
